# AST/ASF file generated using VICON BodyLanguage
# -----------------------------------------------
:version 1.10
:name VICON
:units
  mass 1.0
  length 0.45
  angle deg
:documentation
   .ast/.asf automatically generated from VICON data using
   VICON BodyBuilder and BodyLanguage model FoxedUp or BRILLIANT.MOD
:root
   order TX TY TZ RX RY RZ
   axis XYZ
   position 0 0 0  
   orientation 0 0 0 
:bonedata
  begin
     id 1 
     name lhipjoint
     direction 0.541323 -0.757556 0.364798 
     length 2.47576 
     axis 0 0 0  XYZ
  end
  begin
     id 2 
     name lfemur
     direction 0.34202 -0.939693 0  
     length 7.46493  
     axis 0 0 20  XYZ
    dof rx ry rz
    limits (-160.0 20.0)
           (-70.0 70.0)
           (-60.0 70.0)
  end
  begin
     id 3 
     name ltibia
     direction 0.34202 -0.939693 0   
     length 7.73805   
     axis 0 0 20   XYZ
    dof rx
    limits (-10.0 170.0)
  end
  begin
     id 4 
     name lfoot
     direction 0.107174 -0.294458 0.949636   
     length 2.25864   
     axis -90 7.62852e-016 20   XYZ
    dof rx rz
    limits (-45.0 90.0)
           (-70.0 20.0)
  end
  begin
     id 5 
     name ltoes
     direction 1.53606e-011 -4.21934e-011 1   
     length 1.12451   
     axis -90 7.62852e-016 20   XYZ
    dof rx
    limits (-90.0 20.0)
  end
  begin
     id 6 
     name rhipjoint
     direction -0.524745 -0.766967 0.36933   
     length 2.44538  
     axis 0 0 0  XYZ 
  end
  begin
     id 7 
     name rfemur
     direction -0.34202 -0.939693 0   
     length 7.61604   
     axis 0 0 -20   XYZ
    dof rx ry rz
    limits (-160.0 20.0)
           (-70.0 70.0)
           (-70.0 60.0)
  end
  begin
     id 8 
     name rtibia
     direction -0.34202 -0.939693 0   
     length 7.61056   
     axis 0 0 -20   XYZ
    dof rx
    limits (-10.0 170.0)
 end
 begin
     id 9 
     name rfoot
     direction -0.12616 -0.346623 0.929482   
     length 2.46372  
     axis -90 -7.62852e-016 -20   XYZ
    dof rx rz
    limits (-45.0 90.0)
           (-20.0 70.0)
  end
  begin
     id 10 
     name rtoes
     direction -1.53531e-011 -4.22004e-011 1   
     length 1.21611   
     axis -90 -7.62852e-016 -20   XYZ
    dof rx
    limits (-90.0 20.0)
  end
  begin
     id 11 
     name lowerback
     direction -0.000778023 0.997293 -0.0735223   
     length 2.06139   
     axis 0 0 0   XYZ
    dof rx ry rz
    limits (-20.0 45.0)
           (-30.0 30.0)
           (-30.0 30.0)
  end
  begin
     id 12 
     name upperback
     direction 0.0222598 0.999722 -0.0078355   
     length 2.06383   
     axis 0 0 0   XYZ
    dof rx ry rz
    limits (-20.0 45.0)
           (-30.0 30.0)
           (-30.0 30.0)
  end
  begin
     id 13 
     name thorax
     direction 0.0219654 0.999405 0.0265994   
     length 2.07163   
     axis 0 0 0   XYZ
    dof rx ry rz
    limits (-20.0 45.0)
           (-30.0 30.0)
           (-30.0 30.0)
  end
  begin
     id 14 
     name lowerneck
     direction 0.0213282 0.988147 0.15202   
     length 1.75969   
     axis 0 0 0   XYZ
    dof rx ry rz
    limits (-20.0 45.0)
           (-30.0 30.0)
           (-30.0 30.0)
  end
  begin
     id 15 
     name upperneck
     direction -0.0546456 0.982624 -0.177379   
     length 1.79244   
     axis 0 0 0   XYZ
    dof rx ry rz
    limits (-20.0 45.0)
           (-30.0 30.0)
           (-30.0 30.0)
  end
  begin
     id 16
     name head
     direction -0.0199987 0.996855 -0.076686  
     length 1.80555  
     axis 0 0 0   XYZ
    dof rx ry rz
    limits (-20.0 45.0)
           (-30.0 30.0)
           (-30.0 30.0)
  end
  begin
     id 17 
     name lclavicle
     direction 0.929565 0.363219 -0.063096  
     length 3.55722  
     axis 0 0 0   XYZ
    dof ry rz
    limits (-20.0 10.0)
           (0.0 20.0)
  end
  begin
     id 18 
     name lhumerus
     direction 1 -4.48993e-011 -2.36203e-027   
     length 4.92785   
     axis 180 -30 -90   XYZ
    dof rx ry rz
    limits (-60.0 90.0)
           (-90.0 90.0)
           (-90.0 90.0)
  end
  begin
     id 19
     name lradius
     direction 1 -4.48947e-011 2.02997e-027   
     length 3.44052   
     axis 180 -30 -90   XYZ
    dof rx
    limits (-10.0 170.0)
  end
  begin
     id 20
     name lwrist
     direction 1 -4.48962e-011 1.45991e-027   
     length 1.72026   
     axis 1.49639e-024 90 90   XYZ
    dof ry
    limits (-180.0 0.0)
 end
  begin
     id 21 
     name lhand
     direction 1 -4.48984e-011 2.91906e-027   
     length 0.654326   
     axis -1.863e-015 90 90   XYZ
    dof rx rz
    limits (-90.0 90.0)
           (-45.0 45.0)
  end
  begin
     id 22 
     name lfingers
     direction 1 -4.48961e-011 5.83968e-027   
     length 0.527534   
     axis -3.72598e-015 90 90   XYZ
    dof rx
    limits (0.0 90.0)
  end
  begin
     id 23
     name lthumb
     direction 0.707107 -6.34963e-011 0.707107   
     length 0.757437   
     axis -90 45 -6.68868e-015   XYZ
    dof rx rz
    limits (-45.0 45.0)
           (-45.0 45.0)
  end
  begin
     id 24 
     name rclavicle
     direction -0.902944 0.422599 -0.0781198   
     length 3.54432  
     axis 0 0 0   XYZ 
    dof ry rz
    limits (-10.0 20.0)
           (-20.0 0.0)
  end
  begin
     id 25 
     name rhumerus
     direction -1 -4.48953e-011 -4.75835e-028  
     length 5.09181   
     axis 180 30 90   XYZ
    dof rx ry rz
    limits (-90.0 60.0)
           (-90.0 90.0)
           (-90.0 90.0)
  end
  begin
     id 26 
     name rradius
     direction -1 -4.48986e-011 -3.25889e-027   
     length 3.49865   
     axis 180 30 90   XYZ
    dof rx
    limits (-10.0 170.0)
  end
  begin
     id 27 
     name rwrist
     direction -1 -4.48963e-011 1.45989e-027   
     length 1.74933   
     axis 1.49639e-024 -90 -90   XYZ
    dof ry
    limits (-180.0 0.0)
  end
  begin
     id 28
     name rhand
     direction -1 -4.49003e-011 2.91844e-027   
     length 0.66641   
     axis -1.863e-015 -90 -90   XYZ
    dof rx rz
    limits (-90.0 90.0)
           (-45.0 45.0)
  end
  begin
     id 29
     name rfingers
     direction -1 -4.48973e-011 5.83886e-027   
     length 0.537277   
     axis -3.72598e-015 -90 -90   XYZ
    dof rx
    limits (0.0 90.0)
  end
  begin
     id 30
     name rthumb
     direction -0.707107 -6.34976e-011 0.707107   
     length 0.771425   
     axis -90 -45 6.68868e-015   XYZ
    dof rx rz
    limits (-45.0 45.0)
           (-45.0 45.0)
  end
:hierarchy
  begin
    root lhipjoint rhipjoint lowerback
    lhipjoint lfemur
    lfemur ltibia
    ltibia lfoot
    lfoot ltoes
    rhipjoint rfemur
    rfemur rtibia
    rtibia rfoot
    rfoot rtoes
    lowerback upperback
    upperback thorax
    thorax lowerneck lclavicle rclavicle
    lowerneck upperneck
    upperneck head
    lclavicle lhumerus
    lhumerus lradius
    lradius lwrist
    lwrist lhand lthumb
    lhand lfingers
    rclavicle rhumerus
    rhumerus rradius
    rradius rwrist
    rwrist rhand rthumb
    rhand rfingers
  end

#!OML:ASF H:\LiuWeirdWalks\Patient Classification 1\Patient 1\Session 1\male.ASF
:FULLY-SPECIFIED
:DEGREES
1
root 0.243538 17.898 -29.2036 -0.382078 39.0207 -3.33373
lowerback 2.47581 6.61107 3.30418
upperback -0.222948 8.9566 2.08888
thorax -1.43828 4.45892 0.00425084
lowerneck 2.20732 20.3592 17.5289
upperneck 8.64796 29.3465 -15.3505
head 7.1086 14.5322 -4.59814
rclavicle 4.37326e-014 5.56597e-015
rhumerus -31.0921 0.0810221 -81.1922
rradius 24.9552
rwrist -8.22356
rhand -17.1339 2.9449
rfingers 7.12502
rthumb 9.1061 -26.8385
lclavicle 4.37326e-014 5.56597e-015
lhumerus -28.7575 -7.06108 92.692
lradius 24.7192
lwrist 3.17094
lhand -10.0673 1.60112
lfingers 7.12502
lthumb 15.9188 30.9669
rfemur -4.44366 -18.6587 23.2193
rtibia 28.3174
rfoot -20.9338 -42.9575
rtoes 5.48949
lfemur -13.6611 -10.1684 -13.4086
ltibia 29.1653
lfoot -13.9796 -3.1323
ltoes -8.55039
2
root 0.242703 17.8977 -29.2033 -0.38033 39.028 -3.31363
lowerback 2.4979 6.62891 3.29721
upperback -0.258849 8.9824 2.07564
thorax -1.48595 4.47074 -0.0116733
lowerneck 0.716013 20.4674 16.7347
upperneck 10.7011 29.3645 -13.8951
head 7.66403 14.4543 -3.87989
rclavicle -7.50412e-015 2.22639e-014
rhumerus -31.2616 0.0590846 -81.1763
rradius 25.0718
rwrist -8.20694
rhand -17.5033 3.12468
rfingers 7.12502
rthumb 8.7497 -26.674
lclavicle -7.50412e-015 2.22639e-014
lhumerus -28.8399 -7.10595 92.6885
lradius 24.7281
lwrist 3.2021
lhand -9.9357 1.70246
lfingers 7.12502
lthumb 16.0456 31.0581
rfemur -4.46139 -18.6766 23.1951
rtibia 28.3747
rfoot -20.9283 -42.9323
rtoes 5.49758
lfemur -13.6354 -10.1411 -13.4203
ltibia 29.1453
lfoot -13.9683 -3.17128
ltoes -8.43484
3
root 0.243126 17.8971 -29.2055 -0.347922 39.0157 -3.247
lowerback 2.47286 6.64635 3.21951
upperback -0.272118 9.00336 2.09907
thorax -1.50085 4.48184 0.0543391
lowerneck -0.797764 20.5628 16.1802
upperneck 12.642 29.3592 -12.5816
head 8.25508 14.3751 -3.22276
rclavicle -4.57702e-014 -2.94201e-014
rhumerus -31.4062 0.215729 -81.1482
rradius 25.1831
rwrist -8.31231
rhand -17.8433 3.26217
rfingers 7.12502
rthumb 8.42161 -26.5499
lclavicle -4.57702e-014 -2.94201e-014
lhumerus -28.8821 -7.02006 92.7391
lradius 24.7015
lwrist 3.22107
lhand -9.85907 1.66717
lfingers 7.12502
lthumb 16.1194 31.0168
rfemur -4.48896 -18.7379 23.1172
rtibia 28.4343
rfoot -20.9246 -42.8884
rtoes 5.48768
lfemur -13.6118 -10.1414 -13.4836
ltibia 29.1162
lfoot -13.9899 -3.16529
ltoes -8.28417
4
root 0.242898 17.8971 -29.2059 -0.324641 39.0305 -3.18944
lowerback 2.4564 6.5945 3.20608
upperback -0.227544 8.93114 2.09801
thorax -1.44897 4.44696 0.0678688
lowerneck 0.243745 20.5306 16.6764
upperneck 11.3234 29.4118 -13.5091
head 7.88056 14.4531 -3.68077
rclavicle 5.03795e-014 8.74653e-015
rhumerus -31.315 0.193339 -81.1572
rradius 25.2199
rwrist -8.35552
rhand -18.016 3.32833
rfingers 7.12502
rthumb 8.25486 -26.4904
lclavicle 5.03795e-014 8.74653e-015
lhumerus -28.8495 -6.88413 92.664
lradius 24.7165
lwrist 3.18907
lhand -9.83098 1.68272
lfingers 7.12502
lthumb 16.1464 31.0302
rfemur -4.5001 -18.7922 23.0529
rtibia 28.4899
rfoot -20.9301 -42.8475
rtoes 5.51209
lfemur -13.5867 -10.1384 -13.5367
ltibia 29.0909
lfoot -13.9744 -3.17773
ltoes -8.39277
5
root 0.242301 17.8968 -29.2069 -0.303983 39.0343 -3.14166
lowerback 2.44601 6.58723 3.18192
upperback -0.21733 8.91972 2.09422
thorax -1.43591 4.44171 0.0792415
lowerneck -0.0761589 20.5662 16.4919
upperneck 11.6928 29.4224 -13.2072
head 7.97931 14.4417 -3.52923
rclavicle 3.61664e-014 3.02153e-014
rhumerus -31.3232 0.179613 -81.1455
rradius 25.2763
rwrist -8.39275
rhand -18.2367 3.42145
rfingers 7.12502
rthumb 8.04187 -26.4056
lclavicle 3.61664e-014 3.02153e-014
lhumerus -28.852 -6.83241 92.6413
lradius 24.7045
lwrist 3.16953
lhand -9.79345 1.68068
lfingers 7.12502
lthumb 16.1825 31.0252
rfemur -4.52031 -18.8327 23.0017
rtibia 28.5436
rfoot -20.9372 -42.8192
rtoes 5.5247
lfemur -13.5673 -10.1384 -13.5783
ltibia 29.0666
lfoot -13.9662 -3.18568
ltoes -8.36967
6
root 0.241251 17.8965 -29.208 -0.2891 39.0306 -3.10949
lowerback 2.43304 6.58748 3.16915
upperback -0.207346 8.91854 2.09005
thorax -1.41968 4.4415 0.0842681
lowerneck -0.322401 20.5931 16.316
upperneck 11.9359 29.4251 -12.9782
head 8.03662 14.4305 -3.41346
rclavicle 4.68883e-014 -1.11319e-014
rhumerus -31.3118 0.139751 -81.1278
rradius 25.3241
rwrist -8.44486
rhand -18.4254 3.50086
rfingers 7.12502
rthumb 7.85981 -26.333
lclavicle 4.68883e-014 -1.11319e-014
lhumerus -28.8436 -6.79571 92.6217
lradius 24.6803
lwrist 3.12838
lhand -9.78373 1.66795
lfingers 7.12502
lthumb 16.1919 31.0117
rfemur -4.54366 -18.8561 22.9705
rtibia 28.5868
rfoot -20.9369 -42.804
rtoes 5.53589
lfemur -13.5567 -10.1411 -13.6038
ltibia 29.0483
lfoot -13.956 -3.1852
ltoes -8.35746
7
root 0.239615 17.8963 -29.2088 -0.281867 39.0232 -3.09366
lowerback 2.42172 6.58887 3.16616
upperback -0.200147 8.91936 2.08634
thorax -1.40581 4.44216 0.0841284
lowerneck -0.51135 20.6177 16.1284
upperneck 12.0996 29.4294 -12.7902
head 8.0636 14.4225 -3.3176
rclavicle -2.59712e-013 1.27222e-014
rhumerus -31.2951 0.0907611 -81.1132
rradius 25.3697
rwrist -8.48756
rhand -18.5835 3.56378
rfingers 7.12502
rthumb 7.70717 -26.2758
lclavicle -2.59712e-013 1.27222e-014
lhumerus -28.8307 -6.76471 92.6008
lradius 24.6478
lwrist 3.07366
lhand -9.7972 1.65797
lfingers 7.12502
lthumb 16.1789 31.0028
rfemur -4.56757 -18.8571 22.9615
rtibia 28.6217
rfoot -20.9416 -42.8062
rtoes 5.54201
lfemur -13.5535 -10.1385 -13.6118
ltibia 29.0371
lfoot -13.948 -3.18679
ltoes -8.34976
8
root 0.237476 17.896 -29.2094 -0.283187 39.0133 -3.09492
lowerback 2.41589 6.59715 3.17831
upperback -0.201788 8.93029 2.07809
thorax -1.4009 4.44751 0.0698115
lowerneck -0.750376 20.6382 15.9183
upperneck 12.3312 29.4245 -12.5559
head 8.10918 14.4079 -3.20048
rclavicle -2.42604e-013 -1.43125e-014
rhumerus -31.2876 0.0256628 -81.1013
rradius 25.4159
rwrist -8.53473
rhand -18.6951 3.60825
rfingers 7.12502
rthumb 7.59945 -26.2352
lclavicle -2.42604e-013 -1.43125e-014
lhumerus -28.8225 -6.75953 92.5809
lradius 24.6073
lwrist 3.01055
lhand -9.8298 1.6461
lfingers 7.12502
lthumb 16.1475 30.9935
rfemur -4.5909 -18.8397 22.9738
rtibia 28.6462
rfoot -20.9449 -42.8237
rtoes 5.54594
lfemur -13.5569 -10.1352 -13.6023
ltibia 29.0318
lfoot -13.9436 -3.18761
ltoes -8.34872
9
root 0.235045 17.8958 -29.2097 -0.292685 39.0035 -3.10979
lowerback 2.40883 6.59732 3.19789
upperback -0.202648 8.93069 2.07541
thorax -1.39448 4.44762 0.0576466
lowerneck -0.893169 20.6615 15.7452
upperneck 12.4364 29.4311 -12.4009
head 8.11716 14.4038 -3.12219
rclavicle -6.15487e-014 -2.62396e-014
rhumerus -31.2854 -0.024689 -81.0949
rradius 25.4719
rwrist -8.56493
rhand -18.752 3.62911
rfingers 7.12502
rthumb 7.54454 -26.2163
lclavicle -6.15487e-014 -2.62396e-014
lhumerus -28.8124 -6.72694 92.5533
lradius 24.563
lwrist 2.94801
lhand -9.87783 1.6245
lfingers 7.12502
lthumb 16.1013 30.9756
rfemur -4.60979 -18.8069 23.0023
rtibia 28.6605
rfoot -20.9461 -42.8548
rtoes 5.54231
lfemur -13.5632 -10.129 -13.5796
ltibia 29.0313
lfoot -13.943 -3.18975
ltoes -8.35623
10
root 0.232722 17.8956 -29.2097 -0.299349 39.0009 -3.11947
lowerback 2.40652 6.59574 3.22047
upperback -0.208139 8.92903 2.06468
thorax -1.39376 4.44649 0.0349099
lowerneck -0.911454 20.6698 15.6856
upperneck 12.4226 29.4329 -12.3626
head 8.10057 14.4041 -3.10519
rclavicle -7.81596e-014 -1.74931e-014
rhumerus -31.2878 -0.0774117 -81.0971
rradius 25.5226
rwrist -8.57983
rhand -18.7392 3.63079
rfingers 7.12502
rthumb 7.55692 -26.2142
lclavicle -7.81596e-014 -1.74931e-014
lhumerus -28.8062 -6.70391 92.5194
lradius 24.515
lwrist 2.8854
lhand -9.94986 1.61506
lfingers 7.12502
lthumb 16.0319 30.9718
rfemur -4.62136 -18.7798 23.0249
rtibia 28.6668
rfoot -20.9459 -42.8841
rtoes 5.53942
lfemur -13.5703 -10.1226 -13.5627
ltibia 29.034
lfoot -13.946 -3.19687
ltoes -8.37662
